<?xml version="1.0" encoding="utf-8"?>
<!-- Generator: Adobe Illustrator 25.1.0, SVG Export Plug-In . SVG Version: 6.00 Build 0)  -->
<svg version="1.1" id="Layer_1" xmlns="http://www.w3.org/2000/svg" xmlns:xlink="http://www.w3.org/1999/xlink" x="0px" y="0px"
	 viewBox="0 0 500 300" style="enable-background:new 0 0 500 300;" xml:space="preserve">
<style type="text/css">
	.st0{opacity:0.5;}
	.st1{fill:#27AAE1;}
	.st2{opacity:0.25;}
	.st3{fill:#FFFFFF;}
</style>
<g>
	<g class="st2">
		<path class="st3" d="M232.66,153.03c-2.47,0-4.91,0.09-7.31,0.26c-9.64-16.54-36.71-28.46-68.6-28.46
			c-27.12,0-50.75,8.62-63.14,21.38c-3.9-0.47-7.94-0.72-12.08-0.72c-33.76,0-61.12,16.41-61.12,36.66
			c0,19.63,25.71,35.65,58.03,36.61c10.03,15.25,37.24,26.19,69.24,26.19c27.99,0,52.32-8.37,64.69-20.67
			c6.35,1.34,13.17,2.07,20.28,2.07c33.76,0,61.12-16.41,61.12-36.66S266.41,153.03,232.66,153.03z"/>
	</g>
	<g class="st2">
		<path class="st3" d="M425.7,94.07c-4.93-16.62-27.73-29.19-55.12-29.19c-11.2,0-21.63,2.1-30.39,5.73
			c-14.44-9.59-34.71-15.56-57.16-15.56c-31.34,0-58.44,11.63-71.35,28.53c-1.05-0.03-2.11-0.04-3.17-0.04
			c-42.98,0-77.81,22.31-77.81,49.84c0,27.53,34.84,49.84,77.81,49.84c6.57,0,12.96-0.52,19.05-1.51
			c16,12.84,40.64,21.07,68.29,21.07c25.95,0,49.26-7.25,65.26-18.76c11.83,4.66,25.76,7.34,40.66,7.34
			c42.98,0,77.81-22.31,77.81-49.84C479.59,119.33,456.97,100.54,425.7,94.07z"/>
	</g>
</g>
</svg>
