<?xml version="1.0" encoding="utf-8"?>
<!-- Generator: Adobe Illustrator 25.1.0, SVG Export Plug-In . SVG Version: 6.00 Build 0)  -->
<svg version="1.1" id="Layer_1" xmlns="http://www.w3.org/2000/svg" xmlns:xlink="http://www.w3.org/1999/xlink" x="0px" y="0px"
	 viewBox="0 0 500 300" style="enable-background:new 0 0 500 300;" xml:space="preserve">
<style type="text/css">
	.st0{opacity:0.5;}
	.st1{fill:#27AAE1;}
	.st2{opacity:0.25;}
	.st3{fill:#FFFFFF;}
</style>
<g>
	<g class="st2">
		<path class="st3" d="M423.12,115.7c-3.92,0-7.74,0.24-11.44,0.71c-5.43-18.34-35.85-32.37-72.56-32.37
			c-39.01,0-70.91,15.85-73.27,35.87c-3.07-0.2-6.2-0.31-9.38-0.31c-37.9,0-68.62,14.62-68.62,32.66
			c0,18.04,30.72,32.66,68.62,32.66c10.14,0,19.77-1.05,28.43-2.93c10.57,9.16,27.73,15.11,47.11,15.11
			c21.73,0,40.67-7.49,50.66-18.58c10.47,6.37,24.73,10.3,40.46,10.3c32.12,0,58.17-16.37,58.17-36.56S455.24,115.7,423.12,115.7z"
			/>
	</g>
	<g class="st2">
		<path class="st3" d="M314.92,138.37c-6.38,0-12.56,0.53-18.43,1.52c-15.27-19.03-47.41-32.15-84.6-32.15
			c-1.89,0-3.77,0.04-5.63,0.1c-11.06-17.57-37.21-29.93-67.72-29.93c-40.51,0-73.35,21.78-73.35,48.65c0,4.69,1,9.22,2.87,13.51
			c-28.53,5.12-49.34,21.15-49.34,40.15c0,23.12,30.83,41.86,68.87,41.86c23.23,0,43.78-6.99,56.25-17.7
			c17.13,10.91,41.29,17.7,68.05,17.7c21,0,40.39-4.18,56.05-11.25c12.3,6.98,28.82,11.25,46.98,11.25
			c38.04,0,68.87-18.74,68.87-41.86C383.79,157.11,352.95,138.37,314.92,138.37z"/>
	</g>
</g>
</svg>
